<svg xmlns="http://www.w3.org/2000/svg" viewBox="0 0 800 174.73"><defs><style>      .cls-1 {        fill: #5400ff;      }      .cls-2 {        fill: #f6f6f6;      }      .cls-3 {        fill: #895edd;      }      .cls-4 {        fill: #00eaff;      }    </style></defs><g><g id="Layer_1"><g><polygon class="cls-3" points="127.88 39.25 108.03 50.7 88.18 39.25 108.03 27.79 127.88 39.25"></polygon><polygon class="cls-1" points="108.03 142.38 68.33 119.46 48.49 130.92 48.49 108 68.33 96.54 108.03 119.46 108.03 142.38"></polygon><polygon class="cls-4" points="48.49 130.92 68.33 119.46 88.35 131.02 68.33 142.38 48.49 130.92"></polygon><polygon class="cls-1" points="127.88 130.92 147.73 142.38 167.57 130.92 147.73 119.46 127.88 130.92"></polygon><polygon class="cls-4" points="167.58 130.92 147.73 119.46 108.03 142.38 108.03 119.46 147.73 96.54 167.57 108 167.58 130.92"></polygon><g><polygon class="cls-1" points="108.03 50.7 108.03 96.54 88.18 85.08 68.33 96.54 68.33 73.63 88.18 62.16 88.18 39.25 108.03 50.7"></polygon><polygon class="cls-4" points="147.73 73.62 147.73 96.54 127.88 85.08 108.03 96.54 108.03 50.7 127.88 39.25 127.88 62.16 147.73 73.62"></polygon><polygon class="cls-3" points="147.73 96.54 108.03 119.46 68.33 96.54 88.18 85.08 108.03 96.54 127.88 85.08 147.73 96.54"></polygon></g></g><g><path class="cls-2" d="M285.08,45.67l-34.39,85.25h-20.38l-34.39-85.25h22.04l22.8,59.67,22.67-59.67h21.66Z"></path><path class="cls-2" d="M279.22,99.41c0-18.78,15.03-32.99,35.03-32.99s35.03,14.21,35.03,32.99-15.03,32.99-35.03,32.99-35.03-14.21-35.03-32.99ZM330.17,99.41c0-8.9-6.75-15.57-15.92-15.57s-15.92,6.67-15.92,15.57,6.75,15.57,15.92,15.57,15.92-6.67,15.92-15.57Z"></path><path class="cls-2" d="M399.22,66.92v18.53h-2.8c-11.34,0-17.58,6.3-17.58,16.06v29.4h-18.6v-63.01h18.6v7.17c4.59-5.19,10.57-8.15,17.58-8.15h2.8Z"></path><path class="cls-2" d="M433.86,84.34v23.1c0,4.82,2.68,7.54,8.15,7.54,3.31,0,6.12-.99,8.54-2.22v16.93c-3.82,1.85-7.52,2.72-12.48,2.72-15.8,0-22.8-9.02-22.8-21.99v-26.07h-9.81v-16.43h9.81v-15.57h18.6v15.57h16.69v16.43h-16.69Z"></path><path class="cls-2" d="M459.85,48.76c0-6.3,4.97-11,11.46-11s11.59,4.69,11.59,11-4.97,11.12-11.59,11.12-11.46-4.7-11.46-11.12ZM462.02,67.91h18.6v63.01h-18.6v-63.01Z"></path><path class="cls-2" d="M561.38,67.91v63.01h-18.6v-6.3c-4.97,4.94-11.72,7.78-19.62,7.78-17.83,0-31.34-14.21-31.34-32.99s13.5-32.99,31.34-32.99c7.9,0,14.65,2.84,19.62,7.78v-6.3h18.6ZM542.78,99.41c0-8.9-6.75-15.57-15.92-15.57s-15.8,6.67-15.8,15.57,6.75,15.57,15.8,15.57,15.92-6.67,15.92-15.57Z"></path></g><g><path class="cls-2" d="M665.58,115.98h-35.66l-5.47,14.94h-21.14l32.98-85.21h23.31l33.11,85.21h-21.65l-5.47-14.94ZM659.21,98.32l-11.47-31.49-11.46,31.49h22.92Z"></path><path class="cls-2" d="M702.18,45.71h19.73v85.21h-19.73V45.71Z"></path></g></g></g></svg>